<svg width="55" height="18" fill="none" xmlns="http://www.w3.org/2000/svg"><path fill="#FF7B1B" d="M0 13h55v4H0z"/><path d="M1.376 15V3.912h6.768V5.24H2.928v3.296h4.64v1.296h-4.64v3.84h5.616V15H1.376zm11.86-1.072c.353 0 .662-.005.929-.016.277-.021.506-.053.688-.096v-2.48c-.107-.053-.283-.096-.528-.128a4.927 4.927 0 00-.864-.064c-.224 0-.464.016-.72.048a2.148 2.148 0 00-.688.208 1.382 1.382 0 00-.512.416c-.139.17-.208.4-.208.688 0 .533.17.907.512 1.12.341.203.805.304 1.392.304zm-.127-7.456c.597 0 1.098.08 1.504.24.416.15.746.368.992.656.256.277.437.613.544 1.008.106.384.16.81.16 1.28v5.2c-.128.021-.31.053-.544.096-.224.032-.48.064-.768.096a19.69 19.69 0 01-.944.08c-.331.032-.662.048-.992.048a5.48 5.48 0 01-1.296-.144 2.987 2.987 0 01-1.024-.448 2.152 2.152 0 01-.672-.832c-.16-.341-.24-.752-.24-1.232 0-.459.09-.853.272-1.184.192-.33.448-.597.768-.8a3.52 3.52 0 011.12-.448 6.108 6.108 0 011.344-.144c.149 0 .304.01.464.032.16.01.309.032.448.064a7.133 7.133 0 01.608.112v-.416c0-.245-.027-.485-.08-.72a1.595 1.595 0 00-.288-.64 1.359 1.359 0 00-.576-.448c-.235-.117-.544-.176-.928-.176-.491 0-.923.037-1.296.112-.363.064-.635.133-.816.208l-.176-1.232c.192-.085.512-.165.96-.24a7.788 7.788 0 011.456-.128zm7.063.208h3.152v1.248h-3.152v3.84c0 .416.032.763.096 1.04.064.267.16.48.288.64.128.15.288.256.48.32s.416.096.672.096c.448 0 .805-.048 1.072-.144.277-.107.47-.181.576-.224l.288 1.232c-.15.075-.41.165-.784.272a4.27 4.27 0 01-1.28.176c-.565 0-1.035-.07-1.408-.208a2.105 2.105 0 01-.88-.656 2.674 2.674 0 01-.48-1.056 7.565 7.565 0 01-.128-1.472V4.36l1.488-.256V6.68zM31.657 15v-4.448a93.86 93.86 0 01-2.08-3.376 105.82 105.82 0 01-1.84-3.264h1.824c.405.875.858 1.765 1.36 2.672.501.896 1.018 1.76 1.552 2.592a59.29 59.29 0 001.536-2.592c.501-.907.96-1.797 1.376-2.672h1.728a106.046 106.046 0 01-1.84 3.264 109.876 109.876 0 01-2.064 3.344V15h-1.552zm12.903-.24a18.96 18.96 0 01-1.36.272c-.554.096-1.2.144-1.936.144-.64 0-1.178-.09-1.616-.272a2.674 2.674 0 01-1.056-.8 3.217 3.217 0 01-.576-1.2 6.394 6.394 0 01-.176-1.552V6.68h1.488v4.352c0 1.013.16 1.739.48 2.176.32.437.859.656 1.616.656.16 0 .326-.005.496-.016.17-.01.33-.021.48-.032.15-.021.283-.037.4-.048a1.46 1.46 0 00.272-.064V6.68h1.488v8.08zm5.572-4.336c.32.245.656.55 1.008.912.362.363.714.757 1.056 1.184.352.416.682.843.992 1.28.31.427.57.827.784 1.2h-1.744a11.481 11.481 0 00-.784-1.136 13.44 13.44 0 00-.912-1.12c-.32-.363-.646-.693-.976-.992a8.8 8.8 0 00-.944-.752v4h-1.488V2.84l1.488-.256v7.584l.848-.848c.31-.31.613-.624.912-.944l.848-.912c.266-.299.496-.56.688-.784h1.744c-.246.267-.512.56-.8.88-.288.32-.587.645-.896.976a3055.167 3055.167 0 01-1.824 1.888z" fill="#000"/></svg>