<svg width="55" height="18" viewBox="0 0 55 18" fill="none" xmlns="http://www.w3.org/2000/svg">
<rect y="13" width="55" height="4" fill="#FF7B1B"/>
<path d="M1.376 15V3.912H8.144V5.24H2.928V8.536H7.568V9.832H2.928V13.672H8.544V15H1.376ZM13.2366 13.928C13.5886 13.928 13.898 13.9227 14.1646 13.912C14.442 13.8907 14.6713 13.8587 14.8526 13.816V11.336C14.746 11.2827 14.57 11.24 14.3246 11.208C14.09 11.1653 13.802 11.144 13.4606 11.144C13.2366 11.144 12.9966 11.16 12.7406 11.192C12.4953 11.224 12.266 11.2933 12.0526 11.4C11.85 11.496 11.6793 11.6347 11.5406 11.816C11.402 11.9867 11.3326 12.216 11.3326 12.504C11.3326 13.0373 11.5033 13.4107 11.8446 13.624C12.186 13.8267 12.65 13.928 13.2366 13.928ZM13.1086 6.472C13.706 6.472 14.2073 6.552 14.6126 6.712C15.0286 6.86133 15.3593 7.08 15.6046 7.368C15.8606 7.64533 16.042 7.98133 16.1486 8.376C16.2553 8.76 16.3086 9.18667 16.3086 9.656V14.856C16.1806 14.8773 15.9993 14.9093 15.7646 14.952C15.5406 14.984 15.2846 15.016 14.9966 15.048C14.7086 15.08 14.394 15.1067 14.0526 15.128C13.722 15.16 13.3913 15.176 13.0606 15.176C12.5913 15.176 12.1593 15.128 11.7646 15.032C11.37 14.936 11.0286 14.7867 10.7406 14.584C10.4526 14.3707 10.2286 14.0933 10.0686 13.752C9.90863 13.4107 9.82863 13 9.82863 12.52C9.82863 12.0613 9.91929 11.6667 10.1006 11.336C10.2926 11.0053 10.5486 10.7387 10.8686 10.536C11.1886 10.3333 11.562 10.184 11.9886 10.088C12.4153 9.992 12.8633 9.944 13.3326 9.944C13.482 9.944 13.6366 9.95467 13.7966 9.976C13.9566 9.98667 14.106 10.008 14.2446 10.04C14.394 10.0613 14.522 10.0827 14.6286 10.104C14.7353 10.1253 14.81 10.1413 14.8526 10.152V9.736C14.8526 9.49067 14.826 9.25067 14.7726 9.016C14.7193 8.77067 14.6233 8.55733 14.4846 8.376C14.346 8.184 14.154 8.03467 13.9086 7.928C13.674 7.81067 13.3646 7.752 12.9806 7.752C12.49 7.752 12.058 7.78933 11.6846 7.864C11.322 7.928 11.05 7.99733 10.8686 8.072L10.6926 6.84C10.8846 6.75467 11.2046 6.67467 11.6526 6.6C12.1006 6.51467 12.586 6.472 13.1086 6.472ZM20.172 6.68H23.324V7.928H20.172V11.768C20.172 12.184 20.204 12.5307 20.268 12.808C20.332 13.0747 20.428 13.288 20.556 13.448C20.684 13.5973 20.844 13.704 21.036 13.768C21.228 13.832 21.452 13.864 21.708 13.864C22.156 13.864 22.5133 13.816 22.78 13.72C23.0573 13.6133 23.2493 13.5387 23.356 13.496L23.644 14.728C23.4947 14.8027 23.2333 14.8933 22.86 15C22.4867 15.1173 22.06 15.176 21.58 15.176C21.0147 15.176 20.5453 15.1067 20.172 14.968C19.8093 14.8187 19.516 14.6 19.292 14.312C19.068 14.024 18.908 13.672 18.812 13.256C18.7267 12.8293 18.684 12.3387 18.684 11.784V4.36L20.172 4.104V6.68ZM31.6566 15V10.552C30.9206 9.41067 30.2273 8.28533 29.5766 7.176C28.926 6.06667 28.3126 4.97867 27.7366 3.912H29.5606C29.966 4.78667 30.4193 5.67733 30.9206 6.584C31.422 7.48 31.9393 8.344 32.4726 9.176C32.9953 8.344 33.5073 7.48 34.0086 6.584C34.51 5.67733 34.9686 4.78667 35.3846 3.912H37.1126C36.5366 4.97867 35.9233 6.06667 35.2726 7.176C34.622 8.27467 33.934 9.38933 33.2086 10.52V15H31.6566ZM44.5603 14.76C44.2189 14.8453 43.7656 14.936 43.2003 15.032C42.6456 15.128 42.0003 15.176 41.2643 15.176C40.6243 15.176 40.0856 15.0853 39.6483 14.904C39.2109 14.712 38.8589 14.4453 38.5923 14.104C38.3256 13.7627 38.1336 13.3627 38.0163 12.904C37.8989 12.4347 37.8403 11.9173 37.8403 11.352V6.68H39.3283V11.032C39.3283 12.0453 39.4883 12.7707 39.8083 13.208C40.1283 13.6453 40.6669 13.864 41.4243 13.864C41.5843 13.864 41.7496 13.8587 41.9203 13.848C42.0909 13.8373 42.2509 13.8267 42.4003 13.816C42.5496 13.7947 42.6829 13.7787 42.8003 13.768C42.9283 13.7467 43.0189 13.7253 43.0723 13.704V6.68H44.5603V14.76ZM50.1318 10.424C50.4518 10.6693 50.7878 10.9733 51.1398 11.336C51.5024 11.6987 51.8544 12.0933 52.1958 12.52C52.5478 12.936 52.8784 13.3627 53.1878 13.8C53.4971 14.2267 53.7584 14.6267 53.9718 15H52.2278C52.0038 14.6267 51.7424 14.248 51.4438 13.864C51.1558 13.4693 50.8518 13.096 50.5318 12.744C50.2118 12.3813 49.8864 12.0507 49.5558 11.752C49.2251 11.4533 48.9104 11.2027 48.6118 11V15H47.1238V2.84L48.6118 2.584V10.168C48.8678 9.912 49.1504 9.62933 49.4598 9.32C49.7691 9.01067 50.0731 8.696 50.3718 8.376C50.6704 8.056 50.9531 7.752 51.2198 7.464C51.4864 7.16533 51.7158 6.904 51.9078 6.68H53.6518C53.4064 6.94667 53.1398 7.24 52.8518 7.56C52.5638 7.88 52.2651 8.20533 51.9558 8.536C51.6464 8.856 51.3318 9.18133 51.0118 9.512C50.7024 9.832 50.4091 10.136 50.1318 10.424Z" fill="black"/>
</svg>
